<mxfile host="app.diagrams.net" modified="2022-12-27T10:11:32.316Z" agent="5.0 (Macintosh; Intel Mac OS X 10_15_7) AppleWebKit/537.36 (KHTML, like Gecko) Chrome/108.0.0.0 Safari/537.36" etag="pQqZMImesEY-9EXSQ6SH" version="20.7.4" type="github">
  <diagram id="Cd5y1kNHd57_tZJnAyKG" name="Page-1">
    <mxGraphModel dx="1050" dy="566" grid="1" gridSize="10" guides="1" tooltips="1" connect="1" arrows="1" fold="1" page="1" pageScale="1" pageWidth="827" pageHeight="1169" math="0" shadow="0">
      <root>
        <mxCell id="0" />
        <mxCell id="1" parent="0" />
        <mxCell id="WCT9G3qq9kwSmmLW90SS-1" value="" style="rounded=0;whiteSpace=wrap;html=1;" parent="1" vertex="1">
          <mxGeometry x="300" y="150" width="400" height="460" as="geometry" />
        </mxCell>
        <mxCell id="WCT9G3qq9kwSmmLW90SS-2" value="" style="rounded=0;whiteSpace=wrap;html=1;" parent="1" vertex="1">
          <mxGeometry x="780" y="150" width="170" height="460" as="geometry" />
        </mxCell>
        <mxCell id="WCT9G3qq9kwSmmLW90SS-6" value="Amazon Athena" style="sketch=0;points=[[0,0,0],[0.25,0,0],[0.5,0,0],[0.75,0,0],[1,0,0],[0,1,0],[0.25,1,0],[0.5,1,0],[0.75,1,0],[1,1,0],[0,0.25,0],[0,0.5,0],[0,0.75,0],[1,0.25,0],[1,0.5,0],[1,0.75,0]];outlineConnect=0;fontColor=#232F3E;gradientColor=#945DF2;gradientDirection=north;fillColor=#5A30B5;strokeColor=#ffffff;dashed=0;verticalLabelPosition=bottom;verticalAlign=top;align=center;html=1;fontSize=12;fontStyle=0;aspect=fixed;shape=mxgraph.aws4.resourceIcon;resIcon=mxgraph.aws4.athena;" parent="1" vertex="1">
          <mxGeometry x="826" y="220" width="78" height="78" as="geometry" />
        </mxCell>
        <mxCell id="WCT9G3qq9kwSmmLW90SS-7" value="Amazon EMR&lt;br&gt;Trino" style="sketch=0;points=[[0,0,0],[0.25,0,0],[0.5,0,0],[0.75,0,0],[1,0,0],[0,1,0],[0.25,1,0],[0.5,1,0],[0.75,1,0],[1,1,0],[0,0.25,0],[0,0.5,0],[0,0.75,0],[1,0.25,0],[1,0.5,0],[1,0.75,0]];outlineConnect=0;fontColor=#232F3E;gradientColor=#945DF2;gradientDirection=north;fillColor=#5A30B5;strokeColor=#ffffff;dashed=0;verticalLabelPosition=bottom;verticalAlign=top;align=center;html=1;fontSize=12;fontStyle=0;aspect=fixed;shape=mxgraph.aws4.resourceIcon;resIcon=mxgraph.aws4.emr;" parent="1" vertex="1">
          <mxGeometry x="837" y="438.13" width="78" height="78" as="geometry" />
        </mxCell>
        <mxCell id="WCT9G3qq9kwSmmLW90SS-9" value="Processing" style="rounded=1;whiteSpace=wrap;html=1;fillColor=#99CCFF;" parent="1" vertex="1">
          <mxGeometry x="300" y="150" width="400" height="40" as="geometry" />
        </mxCell>
        <mxCell id="WCT9G3qq9kwSmmLW90SS-10" style="edgeStyle=orthogonalEdgeStyle;curved=1;orthogonalLoop=1;jettySize=auto;html=1;entryX=0;entryY=0.25;entryDx=0;entryDy=0;entryPerimeter=0;dashed=1;startArrow=classic;startFill=1;" parent="1" source="WCT9G3qq9kwSmmLW90SS-14" target="WCT9G3qq9kwSmmLW90SS-6" edge="1">
          <mxGeometry relative="1" as="geometry" />
        </mxCell>
        <mxCell id="WCT9G3qq9kwSmmLW90SS-11" value="metadata" style="edgeLabel;html=1;align=center;verticalAlign=middle;resizable=0;points=[];" parent="WCT9G3qq9kwSmmLW90SS-10" vertex="1" connectable="0">
          <mxGeometry x="0.2327" y="-6" relative="1" as="geometry">
            <mxPoint y="1" as="offset" />
          </mxGeometry>
        </mxCell>
        <mxCell id="WCT9G3qq9kwSmmLW90SS-12" style="edgeStyle=orthogonalEdgeStyle;curved=1;orthogonalLoop=1;jettySize=auto;html=1;entryX=0;entryY=0.25;entryDx=0;entryDy=0;entryPerimeter=0;dashed=1;startArrow=classic;startFill=1;" parent="1" source="WCT9G3qq9kwSmmLW90SS-14" target="WCT9G3qq9kwSmmLW90SS-7" edge="1">
          <mxGeometry relative="1" as="geometry" />
        </mxCell>
        <mxCell id="WCT9G3qq9kwSmmLW90SS-13" value="metadata" style="edgeLabel;html=1;align=center;verticalAlign=middle;resizable=0;points=[];" parent="WCT9G3qq9kwSmmLW90SS-12" vertex="1" connectable="0">
          <mxGeometry x="-0.1131" y="1" relative="1" as="geometry">
            <mxPoint x="-35" y="-41" as="offset" />
          </mxGeometry>
        </mxCell>
        <mxCell id="WCT9G3qq9kwSmmLW90SS-14" value="AWS Glue &lt;br&gt;Data Catalog" style="sketch=0;outlineConnect=0;fontColor=#232F3E;gradientColor=none;fillColor=#4D27AA;strokeColor=none;dashed=0;verticalLabelPosition=bottom;verticalAlign=top;align=center;html=1;fontSize=12;fontStyle=0;aspect=fixed;pointerEvents=1;shape=mxgraph.aws4.glue_data_catalog;" parent="1" vertex="1">
          <mxGeometry x="620" y="238" width="72" height="78" as="geometry" />
        </mxCell>
        <mxCell id="WCT9G3qq9kwSmmLW90SS-15" value="" style="rounded=0;whiteSpace=wrap;html=1;fillColor=#99CCFF;" parent="1" vertex="1">
          <mxGeometry x="310" y="220" width="280" height="370" as="geometry" />
        </mxCell>
        <mxCell id="WCT9G3qq9kwSmmLW90SS-16" style="edgeStyle=orthogonalEdgeStyle;curved=1;orthogonalLoop=1;jettySize=auto;html=1;entryX=0;entryY=0.75;entryDx=0;entryDy=0;entryPerimeter=0;startArrow=classic;startFill=1;" parent="1" source="WCT9G3qq9kwSmmLW90SS-20" target="WCT9G3qq9kwSmmLW90SS-6" edge="1">
          <mxGeometry relative="1" as="geometry">
            <Array as="points">
              <mxPoint x="790" y="470" />
              <mxPoint x="790" y="279" />
            </Array>
          </mxGeometry>
        </mxCell>
        <mxCell id="WCT9G3qq9kwSmmLW90SS-17" value="data" style="edgeLabel;html=1;align=center;verticalAlign=middle;resizable=0;points=[];" parent="WCT9G3qq9kwSmmLW90SS-16" vertex="1" connectable="0">
          <mxGeometry x="-0.7539" y="12" relative="1" as="geometry">
            <mxPoint x="8" y="-39" as="offset" />
          </mxGeometry>
        </mxCell>
        <mxCell id="WCT9G3qq9kwSmmLW90SS-18" style="edgeStyle=orthogonalEdgeStyle;curved=1;orthogonalLoop=1;jettySize=auto;html=1;entryX=0;entryY=0.75;entryDx=0;entryDy=0;entryPerimeter=0;startArrow=classic;startFill=1;" parent="1" source="WCT9G3qq9kwSmmLW90SS-20" target="WCT9G3qq9kwSmmLW90SS-7" edge="1">
          <mxGeometry relative="1" as="geometry" />
        </mxCell>
        <mxCell id="WCT9G3qq9kwSmmLW90SS-19" value="data" style="edgeLabel;html=1;align=center;verticalAlign=middle;resizable=0;points=[];" parent="WCT9G3qq9kwSmmLW90SS-18" vertex="1" connectable="0">
          <mxGeometry x="-0.5581" y="-2" relative="1" as="geometry">
            <mxPoint x="20" y="18" as="offset" />
          </mxGeometry>
        </mxCell>
        <mxCell id="WCT9G3qq9kwSmmLW90SS-20" value="Amazon S3" style="outlineConnect=0;dashed=0;verticalLabelPosition=bottom;verticalAlign=top;align=center;html=1;shape=mxgraph.aws3.s3;fillColor=#E05243;gradientColor=none;" parent="1" vertex="1">
          <mxGeometry x="615.5" y="423.13" width="76.5" height="93" as="geometry" />
        </mxCell>
        <mxCell id="WCT9G3qq9kwSmmLW90SS-21" value="Consumption" style="rounded=1;whiteSpace=wrap;html=1;fillColor=#99CCFF;" parent="1" vertex="1">
          <mxGeometry x="780" y="150" width="170" height="40" as="geometry" />
        </mxCell>
        <mxCell id="WCT9G3qq9kwSmmLW90SS-23" style="edgeStyle=orthogonalEdgeStyle;curved=1;orthogonalLoop=1;jettySize=auto;html=1;entryX=0;entryY=0.5;entryDx=0;entryDy=0;" parent="1" target="WCT9G3qq9kwSmmLW90SS-29" edge="1">
          <mxGeometry relative="1" as="geometry">
            <mxPoint x="400" y="491.1300000000001" as="sourcePoint" />
          </mxGeometry>
        </mxCell>
        <mxCell id="WCT9G3qq9kwSmmLW90SS-24" value="Amazon EMR &lt;br&gt;Flink" style="sketch=0;points=[[0,0,0],[0.25,0,0],[0.5,0,0],[0.75,0,0],[1,0,0],[0,1,0],[0.25,1,0],[0.5,1,0],[0.75,1,0],[1,1,0],[0,0.25,0],[0,0.5,0],[0,0.75,0],[1,0.25,0],[1,0.5,0],[1,0.75,0]];outlineConnect=0;fontColor=#232F3E;gradientColor=#945DF2;gradientDirection=north;fillColor=#5A30B5;strokeColor=#ffffff;dashed=0;verticalLabelPosition=bottom;verticalAlign=top;align=center;html=1;fontSize=12;fontStyle=0;aspect=fixed;shape=mxgraph.aws4.resourceIcon;resIcon=mxgraph.aws4.emr;" parent="1" vertex="1">
          <mxGeometry x="310" y="220" width="78" height="78" as="geometry" />
        </mxCell>
        <mxCell id="WCT9G3qq9kwSmmLW90SS-27" value="" style="rounded=0;whiteSpace=wrap;html=1;fillColor=#d5e8d4;strokeColor=#82b366;" parent="1" vertex="1">
          <mxGeometry x="410" y="230" width="170" height="124" as="geometry" />
        </mxCell>
        <mxCell id="WCT9G3qq9kwSmmLW90SS-28" value="" style="rounded=0;whiteSpace=wrap;html=1;fillColor=#fff2cc;strokeColor=#d6b656;" parent="1" vertex="1">
          <mxGeometry x="320" y="390" width="260" height="190" as="geometry" />
        </mxCell>
        <mxCell id="WCT9G3qq9kwSmmLW90SS-29" value="Flink Hive&lt;br&gt;&amp;nbsp;Connector" style="rounded=0;whiteSpace=wrap;html=1;fillColor=#e1d5e7;strokeColor=#9673a6;" parent="1" vertex="1">
          <mxGeometry x="400" y="461.13" width="115" height="60" as="geometry" />
        </mxCell>
        <mxCell id="WCT9G3qq9kwSmmLW90SS-30" style="edgeStyle=orthogonalEdgeStyle;orthogonalLoop=1;jettySize=auto;html=1;exitX=1;exitY=0.5;exitDx=0;exitDy=0;dashed=1;startArrow=classic;startFill=1;curved=1;" parent="1" source="WCT9G3qq9kwSmmLW90SS-31" target="WCT9G3qq9kwSmmLW90SS-14" edge="1">
          <mxGeometry relative="1" as="geometry" />
        </mxCell>
        <mxCell id="iGXgwWePFCdUiCwNWtSP-2" value="metadata" style="edgeLabel;html=1;align=center;verticalAlign=middle;resizable=0;points=[];" parent="WCT9G3qq9kwSmmLW90SS-30" vertex="1" connectable="0">
          <mxGeometry x="0.2999" y="-2" relative="1" as="geometry">
            <mxPoint as="offset" />
          </mxGeometry>
        </mxCell>
        <mxCell id="WCT9G3qq9kwSmmLW90SS-31" value="Catalog for Hive" style="rounded=0;whiteSpace=wrap;html=1;fillColor=#f5f5f5;strokeColor=#666666;fontColor=#333333;" parent="1" vertex="1">
          <mxGeometry x="440" y="276" width="110" height="40" as="geometry" />
        </mxCell>
        <mxCell id="WCT9G3qq9kwSmmLW90SS-32" style="edgeStyle=orthogonalEdgeStyle;curved=1;orthogonalLoop=1;jettySize=auto;html=1;entryX=0;entryY=0.5;entryDx=0;entryDy=0;strokeWidth=1;fontColor=default;startArrow=none;startFill=0;endArrow=classic;endFill=1;exitX=1;exitY=0.5;exitDx=0;exitDy=0;exitPerimeter=0;" parent="1" source="2Av3smL3bxnnChktiQct-2" target="WCT9G3qq9kwSmmLW90SS-29" edge="1">
          <mxGeometry relative="1" as="geometry">
            <mxPoint x="400" y="491.1300000000001" as="sourcePoint" />
          </mxGeometry>
        </mxCell>
        <mxCell id="WCT9G3qq9kwSmmLW90SS-35" style="edgeStyle=orthogonalEdgeStyle;curved=1;orthogonalLoop=1;jettySize=auto;html=1;entryX=0;entryY=0.5;entryDx=0;entryDy=0;entryPerimeter=0;strokeColor=default;startArrow=classic;startFill=1;" parent="1" source="WCT9G3qq9kwSmmLW90SS-29" target="WCT9G3qq9kwSmmLW90SS-20" edge="1">
          <mxGeometry relative="1" as="geometry" />
        </mxCell>
        <mxCell id="iGXgwWePFCdUiCwNWtSP-1" value="data" style="edgeLabel;html=1;align=center;verticalAlign=middle;resizable=0;points=[];" parent="WCT9G3qq9kwSmmLW90SS-35" vertex="1" connectable="0">
          <mxGeometry x="0.0964" y="-4" relative="1" as="geometry">
            <mxPoint x="1" as="offset" />
          </mxGeometry>
        </mxCell>
        <mxCell id="WCT9G3qq9kwSmmLW90SS-36" value="Catalog" style="rounded=0;whiteSpace=wrap;html=1;fillColor=#f5f5f5;strokeColor=#666666;fontColor=#333333;" parent="1" vertex="1">
          <mxGeometry x="410" y="230" width="70" height="20" as="geometry" />
        </mxCell>
        <mxCell id="WCT9G3qq9kwSmmLW90SS-37" value="Connector" style="rounded=0;whiteSpace=wrap;html=1;fillColor=#f5f5f5;strokeColor=#666666;fontColor=#333333;" parent="1" vertex="1">
          <mxGeometry x="320" y="390" width="70" height="20" as="geometry" />
        </mxCell>
        <mxCell id="WCT9G3qq9kwSmmLW90SS-25" style="edgeStyle=orthogonalEdgeStyle;curved=1;orthogonalLoop=1;jettySize=auto;html=1;entryX=0.5;entryY=0;entryDx=0;entryDy=0;dashed=1;strokeWidth=1;fontColor=default;startArrow=classic;startFill=1;endArrow=classic;endFill=1;" parent="1" source="WCT9G3qq9kwSmmLW90SS-31" target="WCT9G3qq9kwSmmLW90SS-28" edge="1">
          <mxGeometry relative="1" as="geometry" />
        </mxCell>
        <mxCell id="WCT9G3qq9kwSmmLW90SS-26" value="metadata" style="edgeLabel;html=1;align=center;verticalAlign=middle;resizable=0;points=[];fontColor=default;" parent="WCT9G3qq9kwSmmLW90SS-25" vertex="1" connectable="0">
          <mxGeometry relative="1" as="geometry">
            <mxPoint as="offset" />
          </mxGeometry>
        </mxCell>
        <mxCell id="2Av3smL3bxnnChktiQct-1" value="" style="shape=image;verticalLabelPosition=bottom;labelBackgroundColor=default;verticalAlign=top;aspect=fixed;imageAspect=0;image=data:image/png,iVBORw0KGgoAAAANSUhEUgAAAZYAAAA6CAYAAACTUX+3AAAMPmlDQ1BJQ0MgUHJvZmlsZQAASImVVwdYU8kWnluSkEBogVCkhN4EAelICaEFEJAONkISIJQYA0HEji4quBZURMGGrooouBZA1orYWRR7XywoKOtiwa68SQFd9pXvzfedO/89c+Y/Z86dmTsDgNoJjkiUg6oDkCvMF8eEBDCSklMYpKdAGWCADHSAGoebJ2JGR0cAWIbqv5d3NwAira/aS7n+2f5fiwaPn8cFAImGOI2Xx82F+CAAeDVXJM4HgCjVm83IF0kxFKAlhgFCvESKM+S4WorT5HifzCYuhgVxGwBKKhyOOAMA1ctQzyjgZkAO1X6IHYU8gRAANQbEvrm503gQp0JsDW1EEEv5PdJ+4Mn4G2faMCeHkzGM5WORFaVAQZ4ohzPz/0zH/y65OZIhH5ZQVDLFoTHSMcO83cqeFi7FKhD3CdMioyDWhPiDgCezhxilZEpC4+X2qAE3jwVzBugQO/I4geEQG0AcLMyJjFDo09IFwWyI4QxBCwX57DiIdSFews8LilXYbBFPi1H4QhvTxSymQn+OI5b5lfp6IMmOZyr4X2fy2Qp+TLUoMy4RYgrE5gWChEiIVSF2yMuODVfYjCvKZEUO2YglMdL4zSGO4QtDAuT8WEG6ODhGYV+amzc0XmxLpoAdqcD78zPjQuX5wdq4HFn8cCzYZb6QGT/Ew89LihgaC48fGCQfO9bDF8bHKng+iPIDYuR9cYooJ1phj5vyc0KkelOIXfIKYhV98YR8OCHl/Hi6KD86Th4nXpTFCYuWx4OvBBGABQIBA0igpIFpIAsIOvqa+uCbvCUYcIAYZAA+sFdohnokylqE8BkLisCfEPFB3nC/AFkrHxRA/ddhrfxpD9JlrQWyHtngKcS5IBzkwHeJrJdw2FsCeAI1gn9450DhwnhzoEjb/71+SPtdw4SaCIVGMuSRoTZkSQwiBhJDicFEG1wf98W98Qj49IfijHvgnkPj+G5PeEroJDwiXCd0EW5PFRSLR0Q5HnRB/mBFLtJ+zAVuCTld8QDcB7JDZpyO6wN73AX6YeJ+0LMr1LIUcUuzwhjB/bcR/PA1FHZkRzJK1iH7k61H9lS1VXUdZpHm+sf8yGNNG843a7hlpH/WD9nnwTp8pCW2BDuAncVOYuexI1gTYGDHsWasHTsqxcOz64lsdg15i5HFkw15BP/wN/RlpZnMc6xz7HX8Im/L5xdK92jAmiaaKRZkZOYzmPCPwGewhVyH0QxnR2dnAKT/F/n29YYu+28g9AvfdQvhGvcRDg4OHvmuC/8EwEETuPy7vuusrsBtAu7T51ZxJeICuQ6XPghwl1CDK00PGAEzYA3H4wzcgDfwB0EgDESBOJAMpsDoM+E8F4MZYDZYAEpAGVgJ1oINYDPYBnaBvWA/aAJHwElwBlwEl8F1cBfOnm7wAvSDd+AzgiAkhIrQED3EGLFA7BBnxAPxRYKQCCQGSUZSkQxEiEiQ2chCpAwpRzYgW5Fa5FfkMHISOY90IreRh0gv8hr5hGKoCqqFGqKW6BjUA2Wi4WgcOhnNQKejRegidDlaidage9BG9CR6Eb2OdqEv0AEMYMoYHTPB7DEPjIVFYSlYOibG5mKlWAVWg9VjLfA7X8W6sD7sI07EaTgDt4czOBSPx7n4dHwuvgzfgO/CG/E2/Cr+EO/HvxGoBAOCHcGLwCYkETIIMwglhArCDsIhwmm4lroJ74hEIp1oRXSHazGZmEWcRVxG3EhsIJ4gdhIfEwdIJJIeyY7kQ4oicUj5pBLSetIe0nHSFVI36YOSspKxkrNSsFKKklCpWKlCabfSMaUrSs+UPpPVyRZkL3IUmUeeSV5B3k5uIV8id5M/UzQoVhQfShwli7KAUkmpp5ym3KO8UVZWNlX2VJ6gLFCer1ypvE/5nPJD5Y8qmiq2KiyVSSoSleUqO1VOqNxWeUOlUi2p/tQUaj51ObWWeor6gPpBlabqoMpW5anOU61SbVS9ovpSjaxmocZUm6JWpFahdkDtklqfOlndUp2lzlGfq16lflj9pvqABk3DSSNKI1djmcZujfMaPZokTUvNIE2e5iLNbZqnNB/TMJoZjUXj0hbSttNO07q1iFpWWmytLK0yrb1aHVr92praLtoJ2oXaVdpHtbvoGN2Szqbn0FfQ99Nv0D/pGOowdfg6S3Xqda7ovNcdpeuvy9ct1W3Qva77SY+hF6SXrbdKr0nvvj6ub6s/QX+G/ib90/p9o7RGeY/ijiodtX/UHQPUwNYgxmCWwTaDdoMBQyPDEEOR4XrDU4Z9RnQjf6MsozVGx4x6jWnGvsYC4zXGx42fM7QZTEYOo5LRxug3MTAJNZGYbDXpMPlsamUab1ps2mB634xi5mGWbrbGrNWs39zYfLz5bPM68zsWZAsPi0yLdRZnLd5bWlkmWi62bLLssdK1YlsVWdVZ3bOmWvtZT7eusb5mQ7TxsMm22Whz2Ra1dbXNtK2yvWSH2rnZCew22nWOJoz2HC0cXTP6pr2KPdO+wL7O/qED3SHCodihyeHlGPMxKWNWjTk75pujq2OO43bHu06aTmFOxU4tTq+dbZ25zlXO18ZSxwaPnTe2eewrFzsXvssml1uuNNfxrotdW12/urm7id3q3Xrdzd1T3avdb3poeUR7LPM450nwDPCc53nE86OXm1e+136vv7ztvbO9d3v3jLMaxx+3fdxjH1Mfjs9Wny5fhm+q7xbfLj8TP45fjd8jfzN/nv8O/2dMG2YWcw/zZYBjgDjgUMB7lhdrDutEIBYYElga2BGkGRQftCHoQbBpcEZwXXB/iGvIrJAToYTQ8NBVoTfZhmwuu5bdH+YeNiesLVwlPDZ8Q/ijCNsIcUTLeHR82PjV4+9FWkQKI5uiQBQ7anXU/Wir6OnRv00gToieUDXhaYxTzOyYs7G02Kmxu2PfxQXErYi7G28dL4lvTVBLmJRQm/A+MTCxPLEraUzSnKSLyfrJguTmFFJKQsqOlIGJQRPXTuye5DqpZNKNyVaTCyefn6I/JWfK0alqUzlTD6QSUhNTd6d+4URxajgDaey06rR+Lou7jvuC589bw+vl+/DL+c/SfdLL03syfDJWZ/Rm+mVWZPYJWIINgldZoVmbs95nR2XvzB7MScxpyFXKTc09LNQUZgvbphlNK5zWKbITlYi6pntNXzu9Xxwu3pGH5E3Oa87Xggf5dom15CfJwwLfgqqCDzMSZhwo1CgUFrbPtJ25dOazouCiX2bhs7izWmebzF4w++Ec5pytc5G5aXNb55nNWzSve37I/F0LKAuyF/xe7FhcXvx2YeLClkWGi+YvevxTyE91Jaol4pKbi70Xb16CLxEs6Vg6dun6pd9KeaUXyhzLKsq+LOMuu/Cz08+VPw8uT1/escJtxaaVxJXClTdW+a3aVa5RXlT+ePX41Y1rGGtK17xdO3Xt+QqXis3rKOsk67oqIyqb15uvX7n+y4bMDderAqoaqg2ql1a/38jbeGWT/6b6zYabyzZ/2iLYcmtryNbGGsuaim3EbQXbnm5P2H72F49fanfo7yjb8XWncGfXrphdbbXutbW7DXavqEPrJHW9eybtubw3cG9zvX391gZ6Q9k+sE+y7/mvqb/e2B++v/WAx4H6gxYHqw/RDpU2Io0zG/ubMpu6mpObOw+HHW5t8W459JvDbzuPmBypOqp9dMUxyrFFxwaPFx0fOCE60Xcy4+Tj1qmtd08lnbrWNqGt43T46XNngs+cOss8e/ycz7kj573OH77gcaHpotvFxnbX9kO/u/5+qMOto/GS+6Xmy56XWzrHdR674nfl5NXAq2eusa9dvB55vfNG/I1bNyfd7LrFu9VzO+f2qzsFdz7fnX+PcK/0vvr9igcGD2r+sPmjocut6+jDwIftj2If3X3MffziSd6TL92LnlKfVjwzflbb49xzpDe49/Lzic+7X4hefO4r+VPjz+qX1i8P/uX/V3t/Un/3K/GrwdfL3ui92fnW5W3rQPTAg3e57z6/L/2g92HXR4+PZz8lfnr2ecYX0pfKrzZfW76Ff7s3mDs4KOKIObKjAAYFTU8H4PVOAKjJANDg/YwyUX7/kxVEfmeVIfCfsPyOKCtuANTDSnqMZ50AYB8Uy/mQG4r0CB/nD9CxY4dl6K4mu1dKCxHeA7YEStHt1ZPngxFFfuf8Ie6RNZCyuoCR9b8AMUV7UV/FzFQAAACKZVhJZk1NACoAAAAIAAQBGgAFAAAAAQAAAD4BGwAFAAAAAQAAAEYBKAADAAAAAQACAACHaQAEAAAAAQAAAE4AAAAAAAAAkAAAAAEAAACQAAAAAQADkoYABwAAABIAAAB4oAIABAAAAAEAAAGWoAMABAAAAAEAAAA6AAAAAEFTQ0lJAAAAU2NyZWVuc2hvdDfKAJ8AAAAJcEhZcwAAFiUAABYlAUlSJPAAAAHVaVRYdFhNTDpjb20uYWRvYmUueG1wAAAAAAA8eDp4bXBtZXRhIHhtbG5zOng9ImFkb2JlOm5zOm1ldGEvIiB4OnhtcHRrPSJYTVAgQ29yZSA2LjAuMCI+CiAgIDxyZGY6UkRGIHhtbG5zOnJkZj0iaHR0cDovL3d3dy53My5vcmcvMTk5OS8wMi8yMi1yZGYtc3ludGF4LW5zIyI+CiAgICAgIDxyZGY6RGVzY3JpcHRpb24gcmRmOmFib3V0PSIiCiAgICAgICAgICAgIHhtbG5zOmV4aWY9Imh0dHA6Ly9ucy5hZG9iZS5jb20vZXhpZi8xLjAvIj4KICAgICAgICAgPGV4aWY6UGl4ZWxZRGltZW5zaW9uPjU4PC9leGlmOlBpeGVsWURpbWVuc2lvbj4KICAgICAgICAgPGV4aWY6UGl4ZWxYRGltZW5zaW9uPjQwNjwvZXhpZjpQaXhlbFhEaW1lbnNpb24+CiAgICAgICAgIDxleGlmOlVzZXJDb21tZW50PlNjcmVlbnNob3Q8L2V4aWY6VXNlckNvbW1lbnQ+CiAgICAgIDwvcmRmOkRlc2NyaXB0aW9uPgogICA8L3JkZjpSREY+CjwveDp4bXBtZXRhPgqLMOK+AAAAHGlET1QAAAACAAAAAAAAAB0AAAAoAAAAHQAAAB0AAA/7VupMNAAAD8dJREFUeAHsXAd4FNUWPtTQQ0tISAgBQhGkV4FHEyGCFAmCD1HaU5Hq+xSRIk1QeVQVEX2gIDaKFEEsgBQp0pQSCC3UACG0BJIQEgief8hsZmfv7M5uQnYT7vk+yOzcO7ece+b+p93J1WLsH/dJkuSA5IDkQDbkQK5sOOZHYci5JLA8Csss5yg5kDM5IIHFM9dVAotnroscleSA5IAJDkhgMcEkN1SRwOIGpssuJQckBzKHAxJYMoePmd2KBJbM5qhsT3JAciDLOCCBJctY7VRHElicYpesLDkgOeBJHJDA4kmrkT4WCSzpvJBXkgOSA+7mgJM5qrkksrh7xYT9S2ARskXelByQHHALBySwuIXtmd2pBJbM5qhsT3JAcsB1DkhgcZ13HvSkBBYPWgw5FMmBR54DElhyhAhIYMkRyygnITmQQzgggSVHLKQElhyxjHISkgOPJgdk7N4z110Ci2euixyV5IDkgAkOSGAxwSQ3VHELsJT3LUh3ku9TdGySG6Ysu5QckBzIKRyQwOKZK5mlwOLjnZ/a1fWhrg38qFSR/LRwcxT9uDeaYuNTPJM7clTZlgPdnyhLA9sH246fffjP/m833bp917ZM3nE7B1wBCmfPstx3Mo7jdqZkwwFkGbCE1vOl55uVpaBSBS1sOnD2Jk1dGUlBPl60+0Sc5X5OvSiQLzdVLFPYcHqJyffoTEyiYbksMM8BgMq/mwcKHwibtpuu3kwWlmXnm7lz56I8/M8RpdxNdVTFbeWOR289NGdBBU9LYLHm4cP49VCBJV/e3NSmZml+wa0B5fy12/TdtosUfv4WDWhTjlpWL6W4xRZtuUC//h3zMObpEW0O61iRwpqUNRxLKkt8u0k7yZNffMPBe1jBowgsXw6pa1dx0S4RNteUe6l0/uptOnAmjtYfuEJHom5pq7jlWgKLW9ie6Z0+NGBpUMmbwtgd0TikuGXQCUl3adGWKNpw6Cp1ZndY9yZ+VKRAXkt55OVEGrH4CBXImydHxl9Wvd2YShTOZ5mv6GLuL6dpyfYLoiJ5zwkOPIrAsnh4fQoqne4RcIJdStXDrOiN+fYI3XCja1oCi7Or5pn1Mx1YEJjv2+qBFaKd8rI/L7GVcoFqBRWl/k8GWbnEtIDTsYEvDWgVRNuOXqe5v5zNMQAT5FOQFg+rr2WJ8BoaZO8P9wnL5E3zHJDAYp5X2pqwmocvOEQH2U3tDpLA4g6up/e5fEQjKlU0v+VGFHuXXnRhP8o0YAGgdGviT53qlbEMChfHLibQrLWRdIf9uq93qEi1g4tZlSPOMmPNKQos7UXDQiuQX/ECVuVvsQWzNzL7x1/GdK9C7Wr7Ws3N6Mcz7/0pg8tGzDF5P7sCi7Mbq5YdsFjKZcBiUduKZ89Cp/d2UWpqWpSbB5WRcantyr+ezYEQ/8I0f1Bdq0Feu5VMYZzs4ixlGFiKF8lHnRr6Ub+W1oFSxFHmbzxHJ6MTqC1vqPpyWCkTlx1XQCOsmT8NfirYauyXY+/Qp7+doYgL8dTrXwFsnt/N1hlkP499ggp55bGao9GPb7ZG0efrzxgVy/smOCCBxQST7FTZHH6Vxn9/1FLDlSC55WF5kS04MLnXY9T8sVJWY81yYEFgvnPDMkqmF1KHVbqekEyr91ymNXsvK/GVwaHBVnEU1Pt1/xX6bMNZxXq5mXiXrnCGTpcGZTiw7a80s+nINfp43WnyL56fpvaubnn+Wnwyfb/9Iv2w85LaXbb4WzOoGM15uZbpsYIf3TlzSZLrHLAHLJ5sEWbEMrBnsazZE60wswQrgiX4fQ32LUSFHSg6rcdtt1gtElhcl8Xs8uT68U0J+7qWsgxY0PGTj5eml1oF2LittkZcV6yUPDy2i9fvUNtapWhQu2AqnBaghxUzia2UhKRUGhRanppXK6nM4cAZTjteFUllGEjKlvSin/+6woF/tmIE5xAQq5m/4RzX9SJYNdkhg+r9F6pT07S5ahft2MV4quJfhEQvbc8Ze03Fl+oEe1O1wCLaZpVU2g0Hr1juVS1bhELr+lII91WKN5bbKakUzi7I7RzH2nsq1rJ5WB5wcIG01tYsAyF+hRXXix+vhXehfATPCdwo0TeSCGu9ibXeY2xxukoA5I6scPh5F6CSRfMpcgT3TBwrI+euJlJEVDyt5XNQtzlNW0/2gKX1uG3KWJH+/RLH86oGFKEy3l7kxb8xfgD7b/tj6PdDV5R6+rbN/Ibmh4xItFuSN3Kssdo2srBWsBwnC9J+Hwaw3L13n9pO2G4Ztppu+3zzAHqN3c9GNOTzg3To3INYi0hGVTmoxHKApAG8k5ADtI+5XmI5gI/eGTloV8eX+WWd4LLur8sEBVSlsiUK8Hk4X4Lso8/cPLgTl+Jp7LcRahWbv1X4HejRLECRVyjCkBlsmrtP3KClOy4QeARqVLkEZ9YVsno+IekeK8oPgFlbANdRg0rpyUlqmVF9tRzg3p7nqSeMYKWBXOjr4rcqY746GUMqvT0ZE7XVE7LQ3lYWknivWPj7WZtH8I5s1Owx+gqmXWEAlPohxWggu6y0Z1HQ4L7TcbRo8zmOC9yj5zgTrAMv+t5TcfQRWx0AGbiyoq4l0fecYtykSnEa1qGCckBSOxiA0pQfTiiCgvIGFb21xQxGd2naj5G083isYikBdHByfybHZzw9BgNNIL9OE8Dk5qw7RV0a+Qv94mv3RdO0VSeteCD68cXguoQXW0t4sdtO3M4bZR6a1LMaNdBk5mnr4RqCM2zBQVMAULeCN2/E5djS9DZ1XgLtn7qcQB+sPGGqfdQHDeLNrhNnDZpxHWKu6GMeu02xSahkD1havrON3uwcQh3ql7E7D6TjzmSZw8Zmlv77TCUK5TgjQMseIUiOAPnobyIU2VbrZiWwoM/3X2Slp+oDBU8dg/p3PnsVFm8+rwRYtOOCHLzoghxMNSEH6yew1oxNQ0MYx9dbeBxMwzllv2vjsjbK2E0+8NqZY5N68inmRdP71qDyPtZgoa0HUBnL2XB/Hr9BK0Y2UhQBbTlkDMqInkSuI9Qxqq8+jyMHQ3keIho6n8HcQeLE607K2BidjGn7heIzhRVfgKQzhH0jdNIOw0dMAQtSh7s08qNmOgGE22vB7+dpy+Fr9DSDCQ5Aat1i0FqGfhFOZ2Nuc3C+IMEtpk0/Vkc199cztJzdW6GM4rBktCnIqAPtd9ySY4qm2o/PvegTBHadjKVRXxtrK2o/7vgLSwUWi4g6TN5JvVoEUu8W5WyK8aJ0Erwo+ooiYEGdaatP0gDOvoO27IiwyU3n+j/tM95AR4dVEWpZjtpWy+f8fJqWsWZojyDkHw6oSf6skTpL6w/E0OTlxy2PGQEL5rqV5bUVW1xm6ds/ougzBi57VJzTyOe9WtvpscNqefvrI7QvMlZpXruB2+tPVGbkCtNbLNpnm7FlNYV96yLawRbt6G+OWBVBDmBVuEqfOJADEbBgo4Xyg/kFag5Ya8cA70XPGXu0tyigZAFaMKSeQ5DHQwCDycuPEZJsYAFpyQgoshpYIGOfuihjozQyps6tJ1twr7KCrp+vWm7vb4aA5bHAwspZlDY1bF/CBZvO8UYUQyFsNiJ9uBqbmloC6MzfcJ424swKx2L6tAy0AQxkjH20LpKu3kqhPqwBwdLRkxpv8S2Wn0awllnJz1bz+JK1qsX8eRiU4ZyIJ1kw2ChhsuspJu4OPTd9j5Lat+KtRvpi5fd/5v7NJn6CsEy9aQQseBl074f6iOHfIXa0pRrlitLcV2obPuuoABt6vzl/G35ZABr+ypGNTVkpor56zdpLF66nf3vOCFhEz5q5B03SKAUX1vyPfEbJjIUl6useu/demL1PcR1Zb2mi2sb3XAGWeuwZmNmvprBRgN0bC8OtyiAHn2RQDvrbkQMRsCTeuUf72SsiciergzvJ7wneF5Ug+z+NMZ8woz4n+usJwAIZW51BGeudJmPqHPE+V+f1dIVcAhakDndlC6ULuyP0hI3+K97I2UtAfVsHkgh01rLrYDEfhCzNfvFX2gbbpBijTTVWUjWgkOKW0LvXUEcFjBbVS9JQgfsMdd5dcZw2HWSLqb4vjehUCbdoHZ/eX7bzomIpKTfc9B++rrFhQjOhu2XV7ks0a02kMjKjg5NbDl+lcZrMHNE0jIBFVNfRvdN8QLXvnL8Mq301rJ5dl4Lhg2kFKpiK6s19pRbVKGedii6qJ7oHbbWHTlvNbGDBqfTXPjsg6p6m96lBDUNKCMvM3oS/vxundWY1sIzoWpk6sktQRLAwYWHoaVEmyEEPVqpEJAIWUT39PT0IDn66Aj3XNEBfzaXfngAs0zJJxrSpw1kKLGFN/en5ptYuLawG3E0rd12k45cS6Rk+xNifg556Us+snGbXV8/m/sI6cGst4DRkxEpQpwf7G/WuL8RTxi09TuHnbimfg8GBSz2hzqjvIjgIHc8fGyxPPTi2oyUlg2wHZ5DtcF8GWQf2tY98trJ2WJZraA/gBWhUtypKcN1SmHYBraC9HT8mqpkBFrwYN2+nsDJwny26B4FkfV/qb3tWEiwvWGAqxSWm0FEOziPGAY2xYP48isu0MicJiAjjaDP+QeBcW46A6bSXamhv2VzD4omJS+Y+civyov0mFtxUcFdpySywAOzgdvRhixiBZyNC/09O2GGT6IB4w+z+6TzRP78t4prlSwpPcdo93EhG8Zd3WJ7/YMXNVXLWYkFW2HdvNKRiBfMKu5y49ChtYo+DnhBj08rBTYEcdGbF1JEcQB705CqwwBU6Jc0VCmtl/fhmlDePMUzjXYhNSFESQozWQx0bxunOGAtkbJYDGVua9rUOHO2wJ2PjWMa2pskYPE2t0rxR5UoXEno4IPdRfGhbT5du3KGRiw/rb1t+28RYnq7no7ic1BraOEoL9seGNfYXuqOWsIXwxcbzSvB9dLcQG9cY2kOAfvZPp5Smh7MFgm+E6Qng9MGqE4q1Mb5HFWEdjGnC0mMcEE60BPL17ah1ADzuovmD6ghfLsSeOk5JDzRWFhxMUsf85qJw2sOgbkSOgAVxk+mrT1iymyqw6/L/A+vYpBWq7eOzHoM+F2vmqDOjz+PKN6a+ZFeoUcbXrH6PU72KttkyeH4ga/0Rum9SzWZXTF1dsgbqgiDYE3mtt7L1xnuBhVqw7CDLpwKnzXadutsmO9ARsCCb8OV5+wlWmkp9WgdR/za2CpNarlUG1Hv2rJWPOTljOb8XWkKaL9ZMC4xqOayiQQZWkVrH3l9ngAUW1rscW7G3qT47dZfh512mp8nBQjtyMNOOHMD608sB5mYWWLBuyAyMZmsVSgFc7tsZxEFwmb1nENdEOc7oTFiSfkYHazKP3wkjXrgbWOxZK0gAEsnYAidl7Ad2x2tP3INPIFfTjf8BAAD//yyK/FcAABZeSURBVO1dB5wURdZ/kgSWnHcJu+QgUXKQnBUQ8MgIgmQ4RUFQwhKOoITjJKiAwH0cCigg4cggIlEJEo6clrTkvOTwvX8vPfRUV9XM7O7MLss8fmx3V1fq6tf1r3ppXqs88PdnJFC9NzNS99oh9NO2cFqx+xIlfz0hdeXrsnnSCDmJDp+PoK+XH6djF+5R80qB1KFqDlueiPuPafLKMFq3/wpVL5KBetQJphRJE9nyLdt1kWasP0OpkyeiTxrkpiLZU9ry7D9zm0YtOkq37z6hTrVzUIM3M9vyIOGLuQdp26Eb0nu+SEySKAGtHlyBXnvN3tpv/7tCg+cecrqxclB5SpYkoVMaLnaduEG9Z+63pZsJM3qUoNxZAsxLp+PFGw+o2bg/ndJw8Wau1PTPD4rY0pFwh9/V2yO2Se+5m1gkRyqa1KmoNPt3q0/RD7+fddxLwOOzJrQiJUooGSjONXXNKZqz8UV+R0EXJ13rhFDLStmUuSYsO06Ltofb7s/7pBRlSZvUlo6E/rMP0NYj15zurQ2tQIn5XYukGnvk61wrhFpXtvft0ZOnVGvIFrEqt69nf1SSsmdIJs1/6NxtSpwwAWVMlYRSJEtECWSMaSl55so9avuvnZYUz08La/hgqsAHZu1rhvB4cj9VdOT8HQrlbyf8+n1VFhraogBVeSOD9P7R8DvUacpftnuZU79Ocz8tLf1en/EMWW3wJluZf7QqSJUKprelq/KbGZuWC6Jeb+cyL52OvabvpX1ht5zS1mh4rLnk+0bhTh7y2ILPylD6lEmc2sXF1dsPqelXf9jSXSW8JgMWFMLH8jr/b1IukNpXtX8E1yIe0vcMAmv3XKGSeVLR+5WzU4GgFLb2dp68Sf/670ljwmpRMYialQ+y5QHwTGFGW7v3KhULTkn9Gueh9CnsD/nrgav07apTdPnmQwptlo+qFLK/VFQ+9Ocj9Nv+q7Z2fJnQolJW6lYnp7TJj2fso908LlYa3aYQlc+fzppknD9+8oxqDd1MT23wH5lVByzDfjpM6/ZettWJhOUDy1MALxhEesINVQ/dLCa7fQ2ASMkT1y/9ykrLLNx2nvnhhONewWwp6dsuxRzX1pMLDIyqD8eaT3auAxZdvZ1qBVMb5mUZjV9yjBb/ecFxKz/z+9RuxR3X1pMVuy/S6IVHrUmO8/xZuVxXebmqg+wTmKOgixMdsLgo6nQbE2O7iTvp9OV7TumeXJh8sEjBB4sEPjDr1gHLBQaTFuN3mFmVx/l9SlMmBgoZfTHnAG055Lw4MPOpxk8FFL4AlnwaHlvpgse+84DHfAYsGOxqRdPToCb5zHF3HBftCKfZG84Z180ZLJpLwALAM3fTef4QLxpg0YURNHeW5I46zBOs7ELnH6YjvPMBmbulAGFHg93M+CUnKGPqJNS9TogSVMbySnT5jktm9bF2nPNxScqW3r56fPT4KdUcusXWr3L50tKXbd+wpSNhBAPl6j3yZ9IBS/NxO+jCDfnKbly7wlRKsgNFe+gf+qmiuiUyUdm8aSlHxuSRK2B+V1gBu1gEG9WJwFK7WCYa8J6dx5D5d15IDPzxoKob2nQdsCxnXvqSd70ywrN9LuF55B2/9Dgt/uPFLqdm0Yw06G/5ZdUYadiBqEi1Km8+9k+6ePOBqpg2XTUxagtJbq5kKcXohUckd5yT6jzng+DnfIBv1l0+iAqwNP5yO12/88i5E5KrZQPKSSUiWKTVHKJeNHWoEUzvV7UvKmITWMBjA33AYz4FFryzeiUzUV8WS4HOXL1Hc7ecN3YpFQqkpZ51Q6Q7C4jHpq4No90nbhI+1M8aRZY3KrH82cwrh3HLIlevH1TPTpduPaD5m8IpZ6Zk1Pud3JQ/KFLEM2vDGfqRQQo7qK/eLyjdGaHauAIqqViUt/TzcpYnfXF6/+ETms9jKBIm5bZV7EyNfId5+9/5G/v2HfdUwIKPoapk+44yoH6N81J9hRgRbaFNK0G0h8n6bS6TVCKys+bVnYvAgg+5I3/QMvr3htM0Y91p2S2XaTpg0YnXdGLC8UucgcXoe0153112UJGh57S9tP+0syhEkdWWHF1gAc+s23eZFzKHCecyMvkAvBMdPvAUWB7yQqe2ZEEm66NKdHTr3mNqOFIt5gVQyhYVkcDyu62pf7QqpBGF2fObFUSKwuRzYq/pe5xEYW1ZtaD6Psz6PD32nLbHxmMLPiurEYVt5ybkompV20pRmLVA2+eiMOxA0gQk0u4YZvx6muZtDneseJuWD2SdSoi1OuN88qpTtIR3MwFJE9LIVgUcYLGDwQg7k/uPn1CDUpkNsRdWUNipjGxZULrrQYVxBVTQly61Q6jVW3bxIe5FhZ4yZ9cettUxptY6VMCCD7GW5kPUiXzEHRJEZpi0ZDJYa1/cOReB5bN389LbJeV6skG8W9nIu5aokA5YBvxwkDYdlNdbImdqmtChiLRJEVj6vpuH3imVRZo3qokyGbu7dUUHWE5evEuDebyxeFQR+OD/YogPPAUWT3Q+64dVNHZO4nNAL9NSI0orGpyKvv7QrhuMaWBpXz0Hta8mX5CIwNLX+D5imsecwQvjFCvAYr4giKk68KDI9B9gyBELjhoirSqF07OcOqshS98fdsfYtXxYMzulC0hCEJGNWHDM2M0UDk5BobzNE+u7euchGwScZFFIpCxUlc/sV1wClciXVIYySBRhZn+jcpy04iT9tCVS/GgtrwIWgFG1weptv25CHzr/EK3fd8XRjKoNRwbLCT7CZ/wPIhEZicBiTM4l5R+OCHCy+lRpOmBpM2GncgL1BFj6NMpDDUrL+67ql6t0bwGLKdrERgSLjgePntKNiEeGrm/1X5f4u3Xeocr6+b3GUETM74oPPAWWA2y0033qHrEZ6fW6oRUpIaxCBHKlo8kbGEDTupcQSjE/86BVG2zfgUR1xzLgvfxUi0XAMhKB5dOG4LFAWdYop4ltoKJYB5a+/KAizdt6nncp5yni/hPqUCO7Q+cCC6OxLD7YyABRMFsA608ysxgonKBXaVg6s3Qng7oBPv1mH6TjF+4aO5RpXeXKXeQdw3LvFTvl+gfc9zVlSZOU5n1aKsabxYqtjcRKRzfp12frLhhGyGgCW4WVYOswGXX9bg8dPHvbuJUzc3Ka1fNNWTYj7T5PUMt2XKDNh66yZWAE3bob2d5vwytJy4jA0r5aDvqAFysyWsB89fXySFGp7L4uTQcsTcf8QVduPZQW9wRYWrFlF3anMrrM9V9m0a5HxBMYdmmwxIkKqXYsrnQL7rQFPpjpBh9sEfhgg4IPvAksKh3LbRaFNdCIwurzzhkLLpE8BRaUrzrIDkRmvdgVFQ2Wf3vipA/JR+faOc2iTscrzF+XFHzslNF6wQ8j47FYBRb0r36pTNSH9R8gTFpjWUcCCywAR6/6uRwiLSPD8z9TWOz189ZIpSfMjLuyuXF9lmfKCDufMWx9g51OhUJpqT8Dmcw0GWVhDv3NylOyamItTbcCj06nwNwNRm0jfBxW0gFLT4npoln2BzYuyCoxLsD9RqO3G6tZnHevm5OaV8yKUxvdvPuImrApIiYuK6UJSEyL+5e1JjnORWCpVyIz9W9i/5hRADq6j2fuc5T15MQXwFKZrRKHs8mpjGaxSHjW+qjph2T1uZPmTWDppuGDWxo++EXBB94EFhjOyHgbFo81NBaPvVmX3KiMfXcQFWB5d/Q2xzckvrs5H5eS9g/5RGCpXCgDDWMVgIxm/RoWYzwW68CCB3yP9SYF2ccEpr83IlghxruPdlWyKQHA3FVgNT+8RX6lngQ+KoPnHaYbbPlhNRqQDapZp+xebKYt/aIcpWJzW2/QfzaeoWlrwpyq1gHLelbEDmWLO5HSpkhMC9luXSauwkdkVfqPYjPoChIzaNSpElXprKVEYCnCcu1JErk26oehQ4NR2w3RDa49Ia8Ai2AVFsT+Lj+y34uMTlyMoA6TdstueS3Nm8ACPpCZw+NhwAdrJFaLOosmbwLLhI5FqHiIfEcwXGOCP4XN3gux+btIkcBiNwMf0rwAVS2cQcxuXEOPt1mixwvJFLnzU0iKGVic/VjAYz/4gMdUVmHXWS3R+Ms/3LL4tA6EW8p7awHrOYCiCzspqvxJsPsYzWadB89GkCs9iWkhBnFaTTZzlonczLaxo1mxS+6fYeaJjSNktNMlMlr0BTuNMYvlJq7WvmZKnZR61pNvfSFeeY/FOFbSAQs+iPaTdtGpS3etRQznRTgxykj08YAiG+IhGVlFZtb7/2EFr8pRTwQWiMLXDpHLxFHnPraQgqWUjBJw4Y41chimzx8KTm++ABb0aRkvJOC3IyPVhCvmxSQDJ9dj4ZEm9+J9d6+9CSzgg+IKPuhmEZ1a+6rqD/J4E1iwA67LO2EZneM5qTXr2EQqly8djW5bSEw2rlXA0oO/079VkO/m4ZDa9Vu7Tkg3JmhMBBakYbHqbR6bx86hmdO8juZsBDNv6OM8oWgBC3Yu8CmRkenMiB0NgKIby6JVIi34qExcfsqopnvdYGqksbT5avFxgpVYXKShmhXMKlaQjlzg2jcAzwVzSZh1yqiZ4OegAxaUv/vgCY/XRcOxD1ZdLdlxs3SetLKqjTT4acBfw6TBzfJTjSIZzUun468cSWHIvEOOtKSJExBWcaqVLTKKwII0OEjCUVJFe9kTeQXzyFp29sQzYJeDFWmtYhmNcYK/SE3BY91XwPJ39qCG+aiMYEAxf/M5Y2cvuw/T5tbsjFmMnyUBv+7qGmMLWXkxTTVpxYSOBXxQXcMHQwU+CHXBB94EljdYmjK5czFxeBzXAPA+/95vTJawdKvGz4X3qPrmVMCi86BHYzCKgFMt9JCpkyc2TPwrFLA7QTs6xicyYEHfmniZx6Z1L055A+0O7ugbzN/h93WWQRmOr29xtIFSPIcgeoVpFGJ9BpxHC1hQgQxcTJNj+J20fCuIWipk9Chv3X30bphLGaLFyBvHFPXok5VWcVgWlW1/52/ZN+Sca8sb1KdTrC9lz++xzKwmuQIWM587R3xArSfsoHPX7juy65TryISPBmKfxMxw2OarHP/MCmXAohOdmeV0R18Byz8FURj6BJ8leJfLrJDMPuPju8IKeeikMMGk4v8AYWsZgFBcBhbwAcxkVeQpH3gTWNBHFcha+w9+V4mkxHzVQ+2isAwcHuenPmWsWaXneLcysbMs89+/dxaFIQ94bCH7mVj5RSzrLo+pdEwjW6tFnWZb4ng1GaN2WI02sKDRfmzPX6d4RidlfjaOWdSDHShl8cXMjpp6EviotGEdjSruF/LHNZNi8xnMY8ncaWh8+8LmpdMRH12dYVuc0nQXuokWTl5Wy5aYBBaZpzsmwiWfyxXxumdQ3ZMBC/JO16yYVHWZ6bEJLOiDTpdg9tHVMa4DC/hgcQzygbeBBd/jOMX36OpdiPcxocqABfnmfqIWIYn1uHMtAxaUqwEPfDZTjg6Bx1TAgphnwxVGAqo2vQ4siCvWqlIQbWBntrBL9wwLMXh251BYHcGceMLSk7SJPe8BKgM5pIcs4KT5QDPZ8372hrPmZZw86kKk7Dh+gz6dtd/tfkN3sI6D8alWOR2n7HbI42MKWKAof5eVdPf4KJJOgS/mNa9hHi3Ts6iABRPXz31LK8URZr2yY2wDC/r0EYsrGivEFbI+i2lxHVjQX50CX3we81rFB94GFrSvE++Y/bMexRW5eU8HLBBjIqCrOzsfa30RDx5LVQMqYEFZiMQal5WLXc26dUcdsKDcfweUNwIO6+qw3vM6sFgb04VwQb7j7OE7fukxQ6Gfhq2TrF731nrMc6upspkWF49rNVFZRYdDd/o/s2cJypU5MqSNmH8DR0dGhFeQCliusTUHQlUhmq0rgr9Ru4m7lL4dKD9CEclVVjfCggxja7RVHN0ZIh8rqYAFeWCtNpktxGSmotY6xHOAYd3hW52SvaFjkYnCrI1WfiO9sapUyeqtecXzmNCDqMQ/MVG32V9V4EXzvvUIq0TwwUoJH/gCWNAXd/t7nH2wTrKRC3afIumABXmhJ0PYFXfBZcwvRw1dIWKTiaQDFuSFiTscLKPKYwhoqyLopiZ+WMzt5/ApsJhiMVnnYU78xZxDRqRj+L105ei/up3KAvZTmbzylKyqOJWmi1ZrrhJU0YlVD9KG44Z1UsShAmjABBCkAhaABUx18XMHUDLKwtLDrh8gMIF9kVSOlNb+wQu4NivMVXokWJRNZIdGM1wKgksiyKSVftx0VqnMNvPBb6YRe7S7AhgYJixhndPM9WGGrscsjyOcLqEXkJHVT0e8D3PTbxTRlkdxYMZVLgxH8NMH7aplNxTdqgi71jbhLAzDDkRVEH2UrPncOZ+hWIxgRxedcPxi25+44AM8ExxbTXNb8IHoaT5XwQerFYYrf3E0cEQFjwoh0vj7HHMLP/8hEr5PRDuG0yA86StKlOuugAV1FmC+geQla7pkYhPGNeo4cPYWTeTI3ojDB18vWeTnLqyLdRUFATyGOHUwpnCXxxDE1h0ey8l6UvjNBKVLqpSYYN6ApSkiISCKg4xiRMdirRhisR71gqmhEKZj48FrDBInjdhfuQOT0+jWBW2hXKz1mNGMrWmvwjlbnnpEqjAbEG2Zq3ispBB+G+aigWwijojHYN59p28rrTp0nYDpY8UC6bnOACMSbxgzGbzuVd7surp099BOAQ4xjyjR2M2Art5+RGeu3KUwDukeVQ91XZsxeQ9KV1jaoP+B7I+A93CZIxeH88R7/to9Onf1vvLDjMl+eKsu13zAs6lH5F6EbI+qtGTGhIwo4vidmGvsKwc+2nbkuuMdILp4GY7aLZI7wGKWQYTnclwHJmaAxyV+38fZuOXg2TtuLd7Metw9OniMAS2Q28T8gYgP4def8xgb4tgmfzdfS46MyQwLUjwLvjXEWoNo0x2z+BgHFgyICC5Ldl6g6WvOGDsVV/4sKI/8k1eERWnSQ/mXmbwBLC/zePj7/jKPgJszmOMRvQssjmYUJzEBLIqq41ayp68lCr33CrCgHwCXXvVD+AeqnjlAonKhdNSnYW6p0srsO0AFiv1XlfzA8qq++fj43J7OYH5g8QkXePpaotAprwGL2BeEaOnGv86ncpJE/ld5p2KOlx9YzJHwH1/+EfB0BvMDi0/euaevJQqd8gmwIIx+KCu2dGR636s8OXVl49M9P7DEp7f5qj+LpzOYH1h8wjGevpYodMonwGKKxd5R/GKhH1RevDk/sLwYC//ZqzcC7prsemNk/DqWmBtVnwALugtw6d8kD1VjO2wr+cVf1tHw9AdAidyxCnNuwX/lH4G4OwJ+YPHBu4kvOxZzqAAuUzoVodz8o0EgmCDjVydfdfGXOT44+ncs1tHwn79KIxCboIJx9u9YYo7bfLZjMbuMEC6DWN8Cm/LeM/9nmCCb9/xHP7D4eSD+jEBsA4WnI+kHFk9HTJ3f58Ci7or/DkbA0x1LR/bOl/0Q13l2jII3sZ/8IxBbI/CyAUvT8kGEXzQVKYIjPHzEUYfjDcU3UVi8eTFefBBPgcWLXfFX7R+BaI3AywYs0XrYl6mwH1heprcVM331A0vMjKO/ltgfAT+wxP47kPbADyzSYYnXiX5gidev95V5OD+oxOFX7QNg+X8GtAO8taPvBwAAAABJRU5ErkJggg==;" vertex="1" parent="1">
          <mxGeometry x="622" y="540" width="70" height="10" as="geometry" />
        </mxCell>
        <mxCell id="2Av3smL3bxnnChktiQct-2" value="Amazon S3" style="outlineConnect=0;dashed=0;verticalLabelPosition=bottom;verticalAlign=top;align=center;html=1;shape=mxgraph.aws3.s3;fillColor=#E05243;gradientColor=none;" vertex="1" parent="1">
          <mxGeometry x="180" y="444.63" width="76.5" height="93" as="geometry" />
        </mxCell>
      </root>
    </mxGraphModel>
  </diagram>
</mxfile>
